<svg width="1020" height="1080" viewBox="0 0 1020 1080" fill="none" xmlns="http://www.w3.org/2000/svg">
<g filter="url(#filter0_f_226_2572)">
<path d="M605.167 91.8161L490.179 222.037C271.154 222.037 193.479 336.175 188.501 376C41.821 508.749 183.401 995.669 273.832 983.5C392.999 1046 568.497 554.776 617.999 592.388C699.636 671.374 774.69 638.299 808.429 605.388L868.587 530.186C898.364 492.963 902.338 441.312 878.606 399.971L864.844 376L887.979 218.718C894.522 174.237 841.634 146.131 808.429 176.444C799.801 -37.2822 720.764 -67.4825 682.324 -55.867C643.165 -47.9021 614.57 45.9071 605.167 91.8161Z" fill="#8DF5A4" fill-opacity="0.2"/>
<path d="M605.167 91.8161L490.179 222.037C271.154 222.037 193.479 336.175 188.501 376C41.821 508.749 183.401 995.669 273.832 983.5C392.999 1046 568.497 554.776 617.999 592.388C699.636 671.374 774.69 638.299 808.429 605.388L868.587 530.186C898.364 492.963 902.338 441.312 878.606 399.971L864.844 376L887.979 218.718C894.522 174.237 841.634 146.131 808.429 176.444C799.801 -37.2822 720.764 -67.4825 682.324 -55.867C643.165 -47.9021 614.57 45.9071 605.167 91.8161Z" fill="#8DF5A4" fill-opacity="0.2"/>
</g>
<defs>
<filter id="filter0_f_226_2572" x="0.0812988" y="-183" width="1018.92" height="1297" filterUnits="userSpaceOnUse" color-interpolation-filters="sRGB">
<feFlood flood-opacity="0" result="BackgroundImageFix"/>
<feBlend mode="normal" in="SourceGraphic" in2="BackgroundImageFix" result="shape"/>
<feGaussianBlur stdDeviation="62.5" result="effect1_foregroundBlur_226_2572"/>
</filter>
</defs>
</svg>
