<svg width="201" height="37" viewBox="0 0 201 37" fill="none" xmlns="http://www.w3.org/2000/svg">
<mask id="mask0_84_20979" style="mask-type:luminance" maskUnits="userSpaceOnUse" x="0" y="0" width="201" height="37">
<path d="M201 0.669922H0V36.9992H201V0.669922Z" fill="white"/>
</mask>
<g mask="url(#mask0_84_20979)">
<path d="M97.0842 26.4371C94.5893 29.5318 90.8553 31.3987 85.832 31.3987C77.8449 31.3987 72.3025 26.1343 72.3025 19.0871V18.5994C72.3025 16.0765 73.0225 13.7555 74.3286 11.8213C74.4123 11.6867 74.496 11.569 74.5965 11.4512C75.4337 10.3244 76.4719 9.33203 77.6774 8.50789C77.7277 8.47425 77.7612 8.44061 77.8114 8.42379C79.084 7.59966 80.5407 6.96053 82.1482 6.57369C82.2319 6.55687 82.3157 6.54005 82.3994 6.50642C83.538 6.25413 84.7436 6.10276 85.9994 6.08594C86.0664 6.08594 86.1501 6.08594 86.2171 6.08594H86.2841C91.1734 6.10276 94.8907 8.08741 97.0005 10.9971C96.6991 11.2326 96.381 11.4681 96.0796 11.7035C95.3596 12.2586 94.6228 12.8136 93.9028 13.3686C93.3837 13.7555 92.8814 14.1591 92.3623 14.546C91.9102 14.8823 91.4748 15.2692 90.8888 15.3196C90.3697 15.3701 89.8506 15.2019 89.3985 14.9496C88.9967 14.7141 88.5948 14.445 88.1595 14.2768C87.7241 14.1255 87.2553 14.0414 86.7864 14.0414C84.4087 14.0414 82.8515 15.9083 82.8515 18.5489V18.633C82.8515 21.5932 84.5092 23.376 86.7362 23.376C87.3557 23.376 88.0088 23.3087 88.5781 23.006C89.0971 22.7369 89.5995 22.35 90.1855 22.1987C90.3195 22.165 90.4702 22.1482 90.6041 22.1314C91.006 22.1314 91.4246 22.2491 91.7762 22.4341C92.2953 22.7032 92.7307 23.0901 93.1995 23.4433C93.6851 23.8133 94.1707 24.1833 94.6395 24.5533C95.4265 25.1588 96.2135 25.7643 96.9838 26.3698C97.034 26.4034 97.0507 26.4203 97.0842 26.4371Z" fill="white"/>
</g>
<mask id="mask1_84_20979" style="mask-type:luminance" maskUnits="userSpaceOnUse" x="0" y="0" width="201" height="37">
<path d="M201 0.669922H0V36.9992H201V0.669922Z" fill="white"/>
</mask>
<g mask="url(#mask1_84_20979)">
<path d="M118.701 30.7769H124.478V24.9743H118.701V30.7769ZM118.701 -14.1974H124.478V-20H118.701V-14.1974ZM113.594 6.60785V20.5341C113.594 22.1655 112.338 23.141 110.949 23.141C109.492 23.141 108.403 22.1655 108.403 20.5341V6.59103H97.5195V23.4942C97.5195 28.2709 100.634 31.332 105.908 31.332C109.542 31.332 111.97 29.566 113.577 27.699V30.7601H117.764V24.0325H124.461V6.60785H113.594Z" fill="white"/>
</g>
<mask id="mask2_84_20979" style="mask-type:luminance" maskUnits="userSpaceOnUse" x="0" y="0" width="201" height="37">
<path d="M201 0.669922H0V36.9992H201V0.669922Z" fill="white"/>
</mask>
<g mask="url(#mask2_84_20979)">
<path d="M156.209 13.8225V21.4415C156.209 22.8543 156.996 23.4262 158.536 23.4262C159.474 23.4262 160.462 23.2075 161.55 22.8039V30.0193C159.842 30.7762 157.347 31.2975 154.752 31.2975C148.791 31.2975 145.375 28.9429 145.375 23.6448V13.8225H138.995V21.4415C138.995 22.8543 139.782 23.4262 141.323 23.4262C142.261 23.4262 143.232 23.2075 144.337 22.8039V30.0193C142.629 30.7762 140.134 31.2975 137.539 31.2975C131.578 31.2975 128.162 28.9429 128.162 23.6448V13.8225H125.416V6.60707H128.162V0.669922H138.995V6.60707H145.375V0.669922H156.209L153.412 8.07033L161.667 6.59025V13.8057H156.209V13.8225Z" fill="white"/>
</g>
<path d="M173.79 0.669922H162.957V30.7761H173.79V0.669922Z" fill="white"/>
<mask id="mask3_84_20979" style="mask-type:luminance" maskUnits="userSpaceOnUse" x="0" y="0" width="201" height="37">
<path d="M201 0.669922H0V36.9992H201V0.669922Z" fill="white"/>
</mask>
<g mask="url(#mask3_84_20979)">
<path d="M186.918 16.2948C186.566 16.4294 186.282 16.6985 185.98 16.9339C185.411 17.3544 184.591 17.4553 183.971 17.1021C183.569 16.8835 183.268 16.4967 183.033 16.093C182.698 15.4707 182.498 14.7979 182.397 14.1083C182.313 13.4188 182.297 12.6451 182.481 11.9723C182.531 11.8041 182.598 11.6191 182.732 11.5014C182.816 11.4173 182.966 11.3668 183.05 11.4341C183.1 11.4845 183.117 11.5518 183.117 11.6023C183.151 11.8546 183.167 12.1237 183.184 12.3928C183.234 12.9646 183.234 13.5197 183.318 14.0915C183.385 14.6129 183.536 15.1679 183.787 15.6389C183.921 15.908 184.122 16.1266 184.373 16.2948C184.457 16.3453 184.557 16.3957 184.674 16.4126C184.976 16.463 185.244 16.2275 185.461 16.0594C185.83 15.7734 186.215 15.4875 186.617 15.252C187.019 15.0334 187.521 14.9493 187.973 14.9829C188.358 15.0166 188.743 15.1343 189.095 15.3361C189.446 15.538 189.798 15.7734 190.166 15.9584C190.2 15.9753 190.233 15.9921 190.267 16.0089C190.686 16.1771 191.104 16.1603 191.506 15.9416C191.858 15.7398 192.193 15.4539 192.393 15.1175C192.695 14.6465 192.846 14.0915 192.946 13.5533C193.063 12.931 193.13 12.3087 193.164 11.6864C193.231 11.7032 193.247 11.7705 193.264 11.8378C193.381 12.4432 193.365 13.0992 193.331 13.7215C193.314 14.3102 193.197 14.9157 192.896 15.437C192.561 16.0089 192.042 16.4798 191.406 16.6817C190.602 16.9339 189.631 17.018 188.86 16.6648C188.559 16.5303 188.291 16.3285 187.956 16.2444C187.605 16.1603 187.236 16.1603 186.918 16.2948ZM191.121 24.1998C190.702 24.2671 190.25 24.3175 189.798 24.3175C189.647 24.3175 189.513 24.3175 189.363 24.3007C187.454 24.1998 187.571 21.3069 189.48 21.3069H198.656C199.292 21.3069 199.878 21.0378 200.314 20.6173C200.732 20.1969 201 19.6082 201 18.9522C201 11.3836 196.596 6.03516 187.889 6.03516C180.17 6.03516 174.661 11.0809 174.661 18.4645V19.0363C174.661 26.689 180.321 31.3479 188.81 31.3479C193.984 31.3479 197.567 29.6156 200.364 27.1936L200.146 26.975C197.802 24.5698 194.42 23.628 191.121 24.1998Z" fill="white"/>
</g>
<mask id="mask4_84_20979" style="mask-type:luminance" maskUnits="userSpaceOnUse" x="0" y="0" width="201" height="37">
<path d="M201 0.669922H0V36.9992H201V0.669922Z" fill="white"/>
</mask>
<g mask="url(#mask4_84_20979)">
<path d="M112.857 20.6013C112.857 21.6273 112.02 22.4682 110.999 22.4682C109.977 22.4682 109.14 21.6273 109.14 20.6013C109.14 19.5753 109.977 18.7344 110.999 18.7344C112.02 18.7344 112.857 19.5585 112.857 20.6013Z" fill="white"/>
</g>
<mask id="mask5_84_20979" style="mask-type:luminance" maskUnits="userSpaceOnUse" x="0" y="0" width="201" height="37">
<path d="M201 0.669922H0V36.9992H201V0.669922Z" fill="white"/>
</mask>
<g mask="url(#mask5_84_20979)">
<path d="M15.5221 8.92773L11.4867 21.6093L6.84847 8.92773H0L8.69035 28.1184L7.98709 29.548C7.23359 31.0112 5.35821 32.0877 3.43261 32.0877L6.32939 36.9988C9.3099 36.8811 11.7211 34.9469 13.0774 31.5999L22.2868 8.92773H15.5221Z" fill="white"/>
</g>
<mask id="mask6_84_20979" style="mask-type:luminance" maskUnits="userSpaceOnUse" x="0" y="0" width="201" height="37">
<path d="M201 0.669922H0V36.9992H201V0.669922Z" fill="white"/>
</mask>
<g mask="url(#mask6_84_20979)">
<path d="M30.6089 23.9138C27.7959 23.9138 25.7865 21.7778 25.7865 18.8008C25.7865 15.8238 27.7959 13.6878 30.6089 13.6878C33.422 13.6878 35.4313 15.8238 35.4313 18.8008C35.4313 21.7778 33.4052 23.9138 30.6089 23.9138ZM30.6089 8.45703C24.1623 8.45703 19.4739 12.8132 19.4739 18.8512C19.4739 24.8725 24.1623 29.2455 30.6089 29.2455C37.0555 29.2455 41.744 24.8893 41.744 18.8512C41.744 12.8132 37.0555 8.45703 30.6089 8.45703Z" fill="white"/>
</g>
<mask id="mask7_84_20979" style="mask-type:luminance" maskUnits="userSpaceOnUse" x="0" y="0" width="201" height="37">
<path d="M201 0.669922H0V36.9992H201V0.669922Z" fill="white"/>
</mask>
<g mask="url(#mask7_84_20979)">
<path d="M62.0547 24.7882V8.92773H55.9095V19.2379C55.9095 21.8616 54.1514 23.7622 51.7904 23.7622C49.6471 23.7622 48.1066 22.1812 48.1066 19.877V8.92773H41.9614V21.1384C41.9614 25.8141 45.2433 29.2284 49.6806 29.2284C52.4434 29.2284 54.9383 27.8829 56.077 25.8646L57.2993 28.7575H62.1217L62.0547 24.7882Z" fill="white"/>
</g>
<mask id="mask8_84_20979" style="mask-type:luminance" maskUnits="userSpaceOnUse" x="0" y="0" width="201" height="37">
<path d="M201 0.669922H0V36.9992H201V0.669922Z" fill="white"/>
</mask>
<g mask="url(#mask8_84_20979)">
<path d="M73.7926 8.45703C71.4317 8.45703 69.5898 9.68483 68.4847 11.7872L67.2958 8.92797H62.5571V28.7577H68.7023V18.7672C68.7023 16.6479 70.0921 15.1174 72.1852 14.7474C72.7377 12.4768 73.9768 10.5931 75.8522 8.94479C75.2996 8.72614 74.4457 8.45703 73.7926 8.45703Z" fill="white"/>
</g>
</svg>
