<svg width="1443" height="826" viewBox="0 0 1443 826" fill="none" xmlns="http://www.w3.org/2000/svg">
<g filter="url(#filter0_f_410_10338)">
<path d="M1332 111C1332 449.573 1062.57 773 724.256 773C385.945 773 111 449.572 111 111C383.865 111.002 385.256 111 723.567 111C1061.88 111 990.919 111 1332 111Z" fill="url(#paint0_radial_410_10338)"/>
<path d="M1332 111C1332 449.573 1062.57 773 724.256 773C385.945 773 111 449.572 111 111C383.865 111.002 385.256 111 723.567 111C1061.88 111 990.919 111 1332 111Z" fill="#08193D" fill-opacity="0.35"/>
</g>
<defs>
<filter id="filter0_f_410_10338" x="0" y="0" width="1443" height="884" filterUnits="userSpaceOnUse" color-interpolation-filters="sRGB">
<feFlood flood-opacity="0" result="BackgroundImageFix"/>
<feBlend mode="normal" in="SourceGraphic" in2="BackgroundImageFix" result="shape"/>
<feGaussianBlur stdDeviation="55.5" result="effect1_foregroundBlur_410_10338"/>
</filter>
<radialGradient id="paint0_radial_410_10338" cx="0" cy="0" r="1" gradientUnits="userSpaceOnUse" gradientTransform="translate(722.189 111.002) rotate(90.0596) scale(661.998 1221)">
<stop stop-color="#267D80"/>
<stop offset="0.742361" stop-color="#256B7F" stop-opacity="0.01"/>
</radialGradient>
</defs>
</svg>
