<svg width="1020" height="1080" viewBox="0 0 1020 1080" fill="none" xmlns="http://www.w3.org/2000/svg">
<g filter="url(#filter0_f_618_84)">
<path d="M605.168 91.8161L490.179 222.037C271.155 222.037 193.48 336.175 188.502 376C41.8218 508.749 183.402 995.669 273.832 983.5C393 1046 568.498 554.776 618 592.388C699.636 671.374 774.691 638.299 808.43 605.388L868.588 530.186C898.365 492.963 902.339 441.312 878.606 399.971L864.845 376L887.98 218.718C894.523 174.237 841.634 146.131 808.43 176.444C799.801 -37.2822 720.764 -67.4825 682.325 -55.867C643.166 -47.9021 614.57 45.9071 605.168 91.8161Z" fill="#8DF5A4" fill-opacity="0.2"/>
<path d="M605.168 91.8161L490.179 222.037C271.155 222.037 193.48 336.175 188.502 376C41.8218 508.749 183.402 995.669 273.832 983.5C393 1046 568.498 554.776 618 592.388C699.636 671.374 774.691 638.299 808.43 605.388L868.588 530.186C898.365 492.963 902.339 441.312 878.606 399.971L864.845 376L887.98 218.718C894.523 174.237 841.634 146.131 808.43 176.444C799.801 -37.2822 720.764 -67.4825 682.325 -55.867C643.166 -47.9021 614.57 45.9071 605.168 91.8161Z" fill="#8DF5A4" fill-opacity="0.2"/>
</g>
<defs>
<filter id="filter0_f_618_84" x="0.0820312" y="-183" width="1018.92" height="1297" filterUnits="userSpaceOnUse" color-interpolation-filters="sRGB">
<feFlood flood-opacity="0" result="BackgroundImageFix"/>
<feBlend mode="normal" in="SourceGraphic" in2="BackgroundImageFix" result="shape"/>
<feGaussianBlur stdDeviation="62.5" result="effect1_foregroundBlur_618_84"/>
</filter>
</defs>
</svg>
